<svg width="25" height="20" viewBox="0 0 25 20" fill="none" xmlns="http://www.w3.org/2000/svg">
<path fill-rule="evenodd" clip-rule="evenodd" d="M12.7094 10.9955C12.0312 10.9955 11.7102 10.9054 11.2745 10.7326C10.8388 10.5598 2.30386 7.19023 1.75137 6.92398C1.19888 6.65773 0.462891 6.26968 0.462891 5.80093C0.462891 5.33218 1.00909 5.06461 1.89669 4.72672C2.78429 4.38882 11.0766 1.27808 11.3908 1.1525C11.7049 1.02692 12.0906 0.849609 12.5653 0.849609C12.5738 0.849609 12.5828 0.850513 12.5923 0.852261C12.9906 0.864184 13.3387 1.04045 13.619 1.1525C13.9331 1.27808 22.2255 4.38882 23.1131 4.72672C24.0007 5.06461 24.5469 5.33218 24.5469 5.80093C24.5469 6.26968 23.8109 6.65773 23.2584 6.92398C22.7059 7.19023 14.1709 10.5598 13.7352 10.7326C13.42 10.8576 13.1085 10.971 12.741 10.9904C12.7302 10.9937 12.7197 10.9955 12.7094 10.9955Z" fill="#000"/>
<path fill-rule="evenodd" clip-rule="evenodd" d="M21.582 7.34375C21.582 7.34375 21.8942 7.38464 22.014 7.46672C22.1338 7.5488 22.173 7.71484 22.173 7.86133C22.173 8.00781 22.173 10.1953 22.173 10.293C22.173 10.3906 22.1803 10.4864 22.139 10.5527C22.0976 10.6189 21.3696 11.3032 21.3139 11.3582C21.2583 11.4133 21.118 11.5991 21.1274 11.6734C21.1368 11.7477 21.2837 11.9371 21.353 12.0038C21.4223 12.0705 22.4602 13.1628 22.5194 13.2072C22.5787 13.2515 22.6666 13.3363 22.7495 13.3411C22.8324 13.3459 22.9634 13.2559 23.0395 13.1779C23.1157 13.0999 24.2328 11.9427 24.2832 11.8707C24.3337 11.7987 24.409 11.6682 24.4048 11.6034C24.4005 11.5386 24.3011 11.3484 24.212 11.2908C24.1228 11.2332 23.7868 10.86 23.7401 10.7943C23.6934 10.7287 23.7424 7.11914 23.7424 6.97266C23.7424 6.82617 23.849 6.5842 23.8971 6.51862C23.9451 6.45303 24.0718 6.04492 24.0718 6.04492L22.2117 5.91797C22.2117 5.91797 21.3494 6.45753 21.3495 6.52344C21.3496 6.58934 21.582 7.34375 21.582 7.34375Z" fill="#000"/>
<path fill-rule="evenodd" clip-rule="evenodd" d="M5.7715 10.342C5.84181 10.3385 6.05317 10.4524 6.50511 10.6224C8.0181 11.1917 10.7862 12.732 12.5687 12.732C14.0607 12.732 18.9606 10.2412 19.0826 10.2345C19.2046 10.2279 19.1988 10.4201 19.1988 10.547C19.1988 10.674 19.1988 16.2599 19.1988 16.3478C19.1988 16.4357 19.1552 16.5933 19.0438 16.6896C18.9324 16.786 16.7091 19.1603 12.2236 19.1603C7.73813 19.1603 5.77827 16.7036 5.70368 16.631C5.62909 16.5585 5.62376 16.4166 5.61649 16.2795C5.60922 16.1423 5.63587 10.6935 5.63587 10.6935C5.63587 10.6935 5.62678 10.5051 5.6652 10.4298C5.69062 10.38 5.72627 10.3494 5.7715 10.342Z" fill="#000"/>
</svg>
