<svg width="20" height="20" viewBox="0 0 20 20" fill="none" xmlns="http://www.w3.org/2000/svg">
<path d="M19.8508 11.9886L19.1988 10.6201C19.0095 10.2218 19.0075 9.76437 19.1988 9.36606L19.8487 7.99566C20.1881 7.28187 19.9001 6.43991 19.1885 6.05344L17.8207 5.31401C17.4238 5.09908 17.142 4.72838 17.0515 4.3005L16.7389 2.82559C16.5764 2.05856 15.8277 1.53603 15.0153 1.62674L13.4563 1.79828C13.0017 1.84758 12.5492 1.70758 12.2119 1.41181L11.054 0.396332C10.4513 -0.132111 9.52579 -0.132111 8.92316 0.396332L7.76726 1.41378C7.43201 1.70955 6.97746 1.85152 6.52291 1.80223L4.96388 1.63265C4.15146 1.54392 3.4028 2.06645 3.24237 2.83348L2.9318 4.30839C2.8413 4.73824 2.56158 5.10697 2.16463 5.32387L0.798932 6.06527C0.0872905 6.45174 -0.196543 7.29567 0.142823 8.00749L0.794818 9.37592C0.984041 9.77423 0.986098 10.2317 0.794818 10.63L0.14488 12.0004C-0.194487 12.7142 0.0934608 13.5561 0.805102 13.9426L2.17285 14.682C2.56981 14.897 2.85159 15.2677 2.94208 15.6956L3.25471 17.1705C3.4172 17.9375 4.16586 18.46 4.97828 18.3693L6.53731 18.1978C6.99186 18.1485 7.44435 18.2885 7.78166 18.5842L8.93962 19.5997C9.54225 20.1282 10.4678 20.1282 11.0704 19.5997L12.2263 18.5823C12.5616 18.2865 13.0161 18.1445 13.4707 18.1938L15.0297 18.3634C15.8421 18.4521 16.5908 17.9296 16.7512 17.1626L17.0618 15.6877C17.1523 15.2578 17.432 14.8891 17.829 14.6722L19.1947 13.9308C19.9063 13.5443 20.1901 12.7004 19.8508 11.9886ZM14.6183 8.89283L9.9536 13.3649C9.30366 13.988 8.24854 13.988 7.5986 13.3649L5.36907 11.2255C4.71913 10.6024 4.71913 9.59085 5.36907 8.96776C6.01901 8.34467 7.07413 8.34467 7.72407 8.96776L8.77713 9.97732L12.2634 6.63512C12.9133 6.01203 13.9684 6.01203 14.6183 6.63512C15.2683 7.25821 15.2683 8.26974 14.6183 8.89283Z" fill="#000"/>
</svg>
