<svg width="20" height="20" viewBox="0 0 20 20" fill="none" xmlns="http://www.w3.org/2000/svg">
<g clip-path="url(#clip0_3195_20878)">
<path fill-rule="evenodd" clip-rule="evenodd" d="M19.1504 10.0049C19.1504 4.94856 15.0514 0.849609 9.99512 0.849609C4.9388 0.849609 0.839844 4.94856 0.839844 10.0049C0.839844 15.0612 4.9388 19.1602 9.99512 19.1602C15.0514 19.1602 19.1504 15.0612 19.1504 10.0049Z" fill="white"/>
<path fill-rule="evenodd" clip-rule="evenodd" d="M5.92969 9.96524C5.92969 10.5358 6.39223 10.9984 6.96282 10.9984H9.75224C10.3228 10.9984 10.7854 10.5358 10.7854 9.96524C10.7854 9.39467 10.3228 8.93213 9.75224 8.93213H6.96282C6.39223 8.93213 5.92969 9.39467 5.92969 9.96524Z" fill="#33747C"/>
<path fill-rule="evenodd" clip-rule="evenodd" d="M9.3564 10.7058C9.76365 11.1054 10.4177 11.0992 10.8174 10.692L13.9617 7.48768C14.3614 7.08042 14.3552 6.42631 13.9479 6.02669C13.7524 5.83477 13.4886 5.72841 13.2146 5.731C12.9406 5.73358 12.6789 5.84491 12.487 6.04049L9.34261 9.24479C8.94299 9.65205 8.94913 10.3061 9.3564 10.7058Z" fill="#33747C"/>
</g>
<defs>
<clipPath id="clip0_3195_20878">
<rect width="20" height="20" fill="white"/>
</clipPath>
</defs>
</svg>
