<svg width="20" height="18" viewBox="0 0 20 18" fill="none" xmlns="http://www.w3.org/2000/svg">
<path fill-rule="evenodd" clip-rule="evenodd" d="M3.54433 18.0001C2.09878 17.9991 1.26246 16.7151 2.14966 15.5176C3.08432 14.2561 6.56769 12.3482 6.57094 12.1022C6.57418 11.8561 6.67703 10.1697 6.50949 10.0739C6.41987 10.0226 5.08699 11.7177 4.50284 11.9372C4.25634 12.0298 1.70288 12.4292 1.27692 12.4664C0.814688 12.5068 0.180827 12.4258 0.0256693 11.6675C-0.120233 10.9543 0.389586 10.5106 0.704001 10.4431C1.21248 10.3339 2.90906 10.1827 3.67173 9.83483C4.38496 9.50949 5.48343 7.06548 6.28285 6.62532C6.97605 6.24365 8.83353 6.22218 9.5708 6.22957C10.3081 6.22218 12.1656 6.24364 12.8588 6.62532C13.6583 7.06548 14.7568 9.50949 15.47 9.83483C16.2327 10.1827 17.9293 10.3339 18.4378 10.4431C18.7522 10.5106 19.262 10.9543 19.1161 11.6675C18.961 12.4258 18.3271 12.5068 17.8648 12.4664C17.4389 12.4292 14.8854 12.0298 14.6389 11.9372C14.0547 11.7177 12.7218 10.0226 12.6322 10.0739C12.4646 10.1697 12.5675 11.8561 12.5707 12.1022C12.574 12.3482 16.0574 14.2561 16.9921 15.5176C17.9268 16.7792 16.9486 18.1368 15.3603 17.989C13.8723 17.8505 10.0473 16.5955 9.57082 16.4378C9.09443 16.5955 5.26946 17.8505 3.78139 17.989C3.70074 17.9965 3.62166 18.0001 3.54433 18.0001Z" fill="#000"/>
<path fill-rule="evenodd" clip-rule="evenodd" d="M12.0444 2.48071C12.0444 1.11066 10.9338 0 9.56372 0C8.19366 0 7.08301 1.11066 7.08301 2.48071C7.08301 3.85077 8.19366 4.96143 9.56372 4.96143C10.9338 4.96143 12.0444 3.85077 12.0444 2.48071Z" fill="#000"/>
</svg>
