<svg width="28" height="30" viewBox="0 0 28 30" fill="none" xmlns="http://www.w3.org/2000/svg">
<path d="M19.9444 3.78639H18.609C18.1641 3.78639 17.7857 3.41557 17.7767 2.89035C17.7582 1.81814 16.8979 0.999871 15.8577 0.999871H12.9191C11.8177 0.999871 11.038 1.91462 11.0202 2.9442C11.0119 3.4259 10.6381 3.78302 10.1678 3.78302H8.85246C7.7887 3.78302 6.93346 4.64715 6.93346 5.70961V23.6066C6.93346 24.669 7.78869 25.5332 8.85246 25.5332H19.9478C21.0115 25.5332 21.8668 24.669 21.8668 23.6066V5.71298C21.8668 4.65051 21.0115 3.78639 19.9478 3.78639H19.9444Z" fill="white" fill-opacity="0.4" stroke="#616470" stroke-width="1.06666"/>
<mask id="mask0_4455_14183" style="mask-type:alpha" maskUnits="userSpaceOnUse" x="0" y="11" width="28" height="19">
<rect y="11.1333" width="27.2" height="18.1333" fill="#D9D9D9"/>
</mask>
<g mask="url(#mask0_4455_14183)">
<path d="M19.9444 4.31972H18.609C17.8358 4.31972 17.2568 3.67693 17.2434 2.89954C17.23 2.12214 16.6108 1.5332 15.8577 1.5332H12.9191C12.1459 1.5332 11.5669 2.17599 11.5535 2.95338C11.5401 3.73078 10.9243 4.31635 10.1678 4.31635H8.85246C8.08599 4.31635 7.4668 4.93894 7.4668 5.70961V23.6066C7.4668 24.3772 8.08599 24.9998 8.85246 24.9998H19.9478C20.7142 24.9998 21.3334 24.3772 21.3334 23.6066V5.71297C21.3334 4.94231 20.7142 4.31972 19.9478 4.31972H19.9444Z" fill="#E5BF85"/>
</g>
</svg>
