<svg width="69" height="69" viewBox="0 0 69 69" fill="none" xmlns="http://www.w3.org/2000/svg">
<g clip-path="url(#clip0_1697_1968)">
<path d="M60.3991 9.08367H20.5315C20.2722 9.08367 20.0192 9.09634 19.7662 9.12168C16.9325 3.70568 11.2651 0 4.74388 0C2.12526 0 0 2.12839 0 4.75087C0 7.37335 2.12526 9.50175 4.74388 9.50175C8.86156 9.50175 12.2076 12.8527 12.2076 16.9764V17.2868C12.2076 17.2868 12.2076 17.2932 12.2076 17.2995V37.9373C12.2076 42.4728 15.9331 46.1468 20.5315 46.1468H52.2586C55.6931 46.1468 58.7735 44.0691 60.0195 40.9145L68.16 20.2767C70.279 14.8987 66.2562 9.09634 60.3991 9.09634V9.08367Z" fill='#000'/>
<path d="M21.222 68.6159C26.1667 67.812 29.5245 63.1461 28.7218 58.1941C27.9192 53.2421 23.2601 49.8794 18.3154 50.6832C13.3707 51.4871 10.013 56.153 10.8156 61.105C11.6182 66.0569 16.2773 69.4197 21.222 68.6159Z" fill='#000'/>
<path d="M50.9271 68.6134C55.8717 67.8096 59.2295 63.1436 58.4269 58.1917C57.6243 53.2397 52.9652 49.877 48.0205 50.6808C43.0758 51.4846 39.718 56.1506 40.5207 61.1025C41.3233 66.0545 45.9824 69.4172 50.9271 68.6134Z" fill='#000'/>
</g>
<defs>
<clipPath id="clip0_1697_1968">
<rect width="68.7356" height="68.7356" fill="white"/>
</clipPath>
</defs>
</svg>
