<svg width="100%" viewBox="0 0 65 61" fill="none" xmlns="http://www.w3.org/2000/svg">
<path fill-rule="evenodd" clip-rule="evenodd" d="M49.8979 0H15.1021C6.76068 0 0 6.79602 0 15.1811V35.5242C0 43.9093 6.76068 50.7053 15.1021 50.7053H41.1724C43.5837 50.7053 45.9236 51.5223 47.817 53.0305L56.346 59.8265C59.8469 62.6185 65 60.1138 65 55.625V15.1811C65 6.79602 58.2393 0 49.8979 0ZM48 32C44.6863 32 42 29.3137 42 26C42 22.6863 44.6863 20 48 20C51.3137 20 54 22.6863 54 26C54 29.3137 51.3137 32 48 32ZM32 32C28.6863 32 26 29.3137 26 26C26 22.6863 28.6863 20 32 20C35.3137 20 38 22.6863 38 26C38 29.3137 35.3137 32 32 32ZM10 26C10 29.3137 12.6863 32 16 32C19.3137 32 22 29.3137 22 26C22 22.6863 19.3137 20 16 20C12.6863 20 10 22.6863 10 26Z" fill='#000'/>
</svg>
