<svg width="24" height="25" viewBox="0 0 24 25" fill="none" xmlns="http://www.w3.org/2000/svg">
<path d="M5.5 6.33796e-05H4.3331C1.5 6.33796e-05 2.85945e-09 1.5 2.85987e-09 4.50006V21.4216C2.85987e-09 23.3914 1.64591 25.0001 3.6613 25.0001H20.3387C22.3541 25.0001 24 23.3914 24 21.4216V3.57853C24 1.60873 22.3541 6.33796e-05 20.3387 6.33796e-05H10C9.31141 6.33796e-05 8 -7.92245e-05 5.5 6.33796e-05ZM13.1337 19.7144H4.23233V16.7762H13.1337V19.7144ZM19.6669 14.4781H4.23233V11.5398H19.6669V14.4781ZM19.7677 9.24169H4.3331V6.30341H19.7677V9.24169Z" fill="#000"/>
</svg>
