<svg width="24" height="24" viewBox="0 0 24 24" fill="#000" xmlns="http://www.w3.org/2000/svg">
<path d="M13.6457 4.23536C14.8146 4.23536 15.7621 3.28724 15.7621 2.11768C15.7621 0.948117 14.8146 0 13.6457 0C12.4768 0 11.5293 0.948117 11.5293 2.11768C11.5293 3.28724 12.4768 4.23536 13.6457 4.23536Z" fill="#000"/>
<path d="M19.0733 13.2657C18.3921 13.2657 17.7421 13.4046 17.1504 13.6568L16.714 12.9442H18.7829C19.1865 12.9442 19.5134 12.6171 19.5134 12.2133C19.5134 11.8095 19.1865 11.4824 18.7829 11.4824H17.5595C17.6654 11.2047 17.6763 10.8923 17.5686 10.5926L15.7206 5.48022C15.5745 5.07459 15.233 4.76945 14.8131 4.67078C14.3931 4.57212 13.9512 4.69088 13.6389 4.98688L10.7117 7.76599L7.24949 8.2575C6.99931 8.29222 6.77836 8.40002 6.59941 8.55167L4.76604 8.07296C4.37708 7.97064 3.97717 8.20451 3.87491 8.59553C3.77265 8.98654 4.00639 9.38486 4.39717 9.48718L6.22871 9.9659C6.27802 10.0993 6.34924 10.2217 6.43689 10.3295L5.58046 13.3096C5.36498 13.2804 5.14586 13.2639 4.92308 13.2639C2.20954 13.2639 0 15.473 0 18.1899C0 20.9069 2.20771 23.116 4.92308 23.116C7.63844 23.116 9.84615 20.9069 9.84615 18.1899C9.84615 16.2093 8.67199 14.5009 6.98288 13.7189L7.83383 10.7589L11.4732 10.2436C11.7361 10.2071 11.9808 10.0883 12.1744 9.9056L13.9804 8.19172L14.7601 10.3478L9.84615 12.544C9.2052 12.8309 8.91486 13.58 9.19607 14.2232L11.1956 18.8112C11.4056 19.2917 11.8749 19.5804 12.368 19.5804C12.5378 19.5804 12.7113 19.5457 12.8774 19.4744C13.5239 19.1931 13.8197 18.4384 13.5385 17.7916L12.0466 14.3657L15.0486 13.0246L15.9105 14.4297C14.9518 15.2373 14.3036 16.4048 14.1776 17.7222C14.068 17.8501 13.9986 18.0145 13.9986 18.1954C13.9986 18.3763 14.068 18.5408 14.1776 18.6687C14.4168 21.1627 16.5223 23.1196 19.0769 23.1196C21.7905 23.1196 24 20.9106 24 18.1936C24 15.4766 21.7923 13.2676 19.0769 13.2676L19.0733 13.2657ZM8.38347 18.1918C8.38347 20.1012 6.83132 21.6561 4.92125 21.6561C3.01118 21.6561 1.45903 20.103 1.45903 18.1918C1.45903 16.2806 3.01118 14.7275 4.92125 14.7275C5.00525 14.7275 5.0856 14.7348 5.16777 14.7403L4.23282 17.989C4.12143 18.3763 4.34604 18.7819 4.73317 18.8934C4.80073 18.9135 4.86829 18.9226 4.93586 18.9226C5.25359 18.9226 5.54577 18.7143 5.63707 18.3928L6.57019 15.1459C7.64939 15.7324 8.38165 16.878 8.38165 18.1899L8.38347 18.1918ZM17.7695 17.4609H15.6914C15.8393 16.7739 16.1936 16.1618 16.6848 15.6922L17.7695 17.4609ZM19.0751 21.6561C17.417 21.6561 16.0292 20.483 15.6932 18.9226H19.0751C19.3399 18.9226 19.5827 18.7801 19.7124 18.5481C19.842 18.3178 19.8366 18.0346 19.6978 17.8099L17.9302 14.9266C18.2899 14.8006 18.6734 14.7275 19.0751 14.7275C20.9833 14.7275 22.5373 16.2806 22.5373 18.1918C22.5373 20.103 20.9852 21.6561 19.0751 21.6561Z" fill="#000"/>
</svg>
