<svg width="21" height="22" viewBox="0 0 21 22" fill="#000" xmlns="http://www.w3.org/2000/svg">
<path d="M14.5188 4.82555C15.8505 4.82555 16.9301 3.74532 16.9301 2.41278C16.9301 1.08024 15.8505 0 14.5188 0C13.187 0 12.1074 1.08024 12.1074 2.41278C12.1074 3.74532 13.187 4.82555 14.5188 4.82555Z" fill="#000"/>
<path d="M20.9596 9.96676C20.7932 9.29642 20.117 8.8884 19.4471 9.05494L16.1557 9.87099L14.4434 6.40692C14.3477 6.21123 14.2021 6.04677 14.0211 5.92395L11.2623 4.06492C11.075 3.94002 10.8587 3.86507 10.634 3.85467L5.57828 3.57779C5.24956 3.56114 4.92292 3.67355 4.67741 3.89422L1.39642 6.83577C0.882529 7.29584 0.838838 8.08483 1.29863 8.59903C1.75843 9.11323 2.54695 9.15695 3.06084 8.69687L5.95694 6.1009L9.94531 6.31949L6.17123 11.3574C5.94861 11.6551 5.86955 12.036 5.95694 12.3983C6.04432 12.7605 6.28566 13.0644 6.62063 13.2289L10.8587 15.3148L7.73787 19.4159C7.31969 19.9655 7.42579 20.7483 7.97505 21.1667C8.20183 21.3395 8.46605 21.4228 8.73028 21.4228C9.10686 21.4228 9.47927 21.2541 9.72477 20.9294L13.7652 15.6209C13.9919 15.3232 14.0731 14.9401 13.9878 14.5779C13.9025 14.2136 13.6591 13.9076 13.3241 13.7431L9.07565 11.6509L12.0279 7.71011C12.0487 7.68305 12.0654 7.65599 12.0841 7.62892L12.3566 7.81212L14.3685 11.8799C14.5828 12.3129 15.0218 12.5752 15.4878 12.5752C15.5877 12.5752 15.6876 12.5627 15.7874 12.5377L20.0525 11.4823C20.7224 11.3157 21.1302 10.6392 20.9638 9.96884L20.9596 9.96676Z" fill="#000"/>
<path d="M4.84037 13.1701L0.242408 19.432C-0.165375 19.9879 -0.0467856 20.7706 0.508716 21.1786C0.731332 21.3431 0.989318 21.4201 1.2473 21.4201C1.63012 21.4201 2.01086 21.2432 2.25428 20.9101L6.77735 14.748C5.92641 14.5232 5.22319 13.9403 4.84037 13.168V13.1701Z" fill="#000"/>
</svg>
