<svg width="18" height="21" viewBox="0 0 18 21" fill="none" xmlns="http://www.w3.org/2000/svg">
<path fill-rule="evenodd" clip-rule="evenodd" d="M13.2722 0.239258H13.1261C12.0329 0.383573 10.8919 1.03209 10.2695 1.76089C9.59844 2.5429 9.04463 3.54499 9.14204 4.97281C10.6023 5.08736 11.5052 4.33241 12.1645 3.55401C12.8365 2.77019 13.3894 1.68783 13.2722 0.239258ZM17.5468 15.3572V15.3166C16.1181 14.6384 14.9744 13.4874 14.8156 11.5202C14.637 9.3546 15.6824 8.08643 17.0047 7.24489C16.3192 6.17335 15.2098 5.47883 13.6467 5.24251C12.4459 5.06181 11.5126 5.40312 10.5843 5.74263C10.5071 5.77086 10.43 5.79908 10.3527 5.82699C10.2691 5.85747 10.1858 5.89105 10.1027 5.92456C9.84399 6.02885 9.58698 6.13246 9.32893 6.13997C8.93463 6.15199 8.52316 5.97688 8.15915 5.82197C8.05853 5.77915 7.96154 5.73787 7.86954 5.70252C7.42126 5.53294 6.90984 5.36157 6.40925 5.284C5.24119 5.10541 4.1922 5.50498 3.42913 5.97401C1.98327 6.85614 0.895488 8.67632 0.800781 10.915V11.8341C1.02447 14.9622 2.2268 17.4065 3.7827 19.2989C4.31036 19.9393 5.03464 20.65 5.9321 20.7799H6.34882C6.8711 20.7063 7.30443 20.5391 7.73378 20.3735C8.30914 20.1515 8.87733 19.9323 9.64282 19.9447C10.2714 19.9554 10.79 20.157 11.3042 20.3569C11.8237 20.5589 12.3388 20.7591 12.9585 20.7591C14.3156 20.7591 15.1049 19.6666 15.7399 18.7876C15.7725 18.7425 15.8048 18.6978 15.8367 18.6539C16.551 17.6654 17.1364 16.6001 17.5468 15.3572Z" fill="white"/>
</svg>
