<svg width="22" height="24" viewBox="0 0 22 24" fill="none" xmlns="http://www.w3.org/2000/svg">
<path fill="transparent" d="M14.2349 19.3325C14.2349 21.0946 12.8007 22.5335 11.0209 22.5335C9.24118 22.5335 7.80692 21.105 7.80692 19.3325M12.9368 5.72544C13.4079 5.24581 13.6905 4.58892 13.6905 3.86946C13.6905 2.39928 12.4971 1.2002 11.0105 1.2002C9.52384 1.2002 8.33037 2.38885 8.33037 3.86946C8.33037 4.58892 8.61304 5.24581 9.08414 5.72544M17.428 11.0118C17.428 9.54166 16.7475 8.13404 15.5436 7.09136C14.3396 6.04867 12.7064 5.46477 11 5.46477C9.29353 5.46477 7.66035 6.04867 6.45641 7.09136C5.25247 8.13404 4.57198 9.54166 4.57198 11.0118C4.57198 13.4413 3.96478 15.2243 3.21101 16.4964C2.35254 17.9457 1.92331 18.6756 1.93378 18.8424C1.95472 19.0405 1.98613 19.1031 2.15363 19.2178C2.28973 19.322 3.00162 19.322 4.42542 19.322H17.5745C18.9879 19.322 19.6998 19.322 19.8463 19.2178C20.0034 19.1031 20.0452 19.0405 20.0662 18.8424C20.0871 18.6651 19.6474 17.9457 18.789 16.4964C18.0352 15.2243 17.428 13.4413 17.428 11.0118Z" stroke="#000" stroke-width="2.13333" stroke-linecap="round" stroke-linejoin="round"/>
</svg>
