<svg width="17" height="17" viewBox="0 0 17 17" fill="none" xmlns="http://www.w3.org/2000/svg">
<path fill-rule="evenodd" clip-rule="evenodd" d="M0 8.18113C0 3.66436 3.70069 0 8.26794 0C12.8326 0 16.5333 3.66184 16.5333 8.18113C16.5333 12.7004 12.8352 16.3623 8.26794 16.3623C3.70069 16.3623 0 12.6979 0 8.18113ZM2.64044 8.18113C2.64044 11.2503 5.16364 13.7495 8.26794 13.7495C11.3697 13.7495 13.8929 11.2503 13.8929 8.18113C13.8929 5.11195 11.3722 2.61524 8.26794 2.61524C5.16364 2.61524 2.64044 5.11195 2.64044 8.18113ZM8.26844 12.7407C10.8069 12.7407 12.8739 10.6954 12.8739 8.18108C12.8739 5.66924 10.8095 3.62396 8.26844 3.62396C5.7274 3.62396 3.66042 5.66672 3.66042 8.18108C3.66042 10.6954 5.72995 12.7407 8.26844 12.7407Z" fill="#E5BF85"/>
</svg>
