<svg width="19" height="20" viewBox="0 0 19 20" fill="none" xmlns="http://www.w3.org/2000/svg">
<mask id="path-1-outside-1_3398_16430" maskUnits="userSpaceOnUse" x="-0.833984" y="-0.247559" width="20" height="20" fill="black">
<rect fill="white" x="-0.833984" y="-0.247559" width="20" height="20"/>
<path fill-rule="evenodd" clip-rule="evenodd" d="M1.16602 9.93356C1.16602 5.4168 4.8667 1.75244 9.43394 1.75244C13.9986 1.75244 17.6993 5.41427 17.6993 9.93356C17.6993 14.4528 14.0012 18.1147 9.43394 18.1147C4.8667 18.1147 1.16602 14.4503 1.16602 9.93356ZM3.80645 9.93356C3.80645 13.0027 6.32965 15.502 9.43394 15.502C12.5357 15.502 15.0589 13.0027 15.0589 9.93356C15.0589 6.86438 12.5382 4.36768 9.43394 4.36768C6.32965 4.36768 3.80645 6.86438 3.80645 9.93356ZM9.4334 14.4931C11.9719 14.4931 14.0389 12.4479 14.0389 9.93351C14.0389 7.42167 11.9744 5.37639 9.4334 5.37639C6.89237 5.37639 4.82538 7.41915 4.82538 9.93351C4.82538 12.4479 6.89491 14.4931 9.4334 14.4931Z"/>
</mask>
<g filter="url(#filter0_i_3398_16430)">
<path fill-rule="evenodd" clip-rule="evenodd" d="M1.16602 9.93356C1.16602 5.4168 4.8667 1.75244 9.43394 1.75244C13.9986 1.75244 17.6993 5.41427 17.6993 9.93356C17.6993 14.4528 14.0012 18.1147 9.43394 18.1147C4.8667 18.1147 1.16602 14.4503 1.16602 9.93356ZM3.80645 9.93356C3.80645 13.0027 6.32965 15.502 9.43394 15.502C12.5357 15.502 15.0589 13.0027 15.0589 9.93356C15.0589 6.86438 12.5382 4.36768 9.43394 4.36768C6.32965 4.36768 3.80645 6.86438 3.80645 9.93356ZM9.4334 14.4931C11.9719 14.4931 14.0389 12.4479 14.0389 9.93351C14.0389 7.42167 11.9744 5.37639 9.4334 5.37639C6.89237 5.37639 4.82538 7.41915 4.82538 9.93351C4.82538 12.4479 6.89491 14.4931 9.4334 14.4931Z" fill="#E5BF85"/>
</g>
<path d="M9.43394 0.685777C4.28803 0.685777 0.0993508 4.81732 0.0993508 9.93356H2.23268C2.23268 6.01627 5.44538 2.81911 9.43394 2.81911V0.685777ZM18.766 9.93356C18.766 4.8148 14.5773 0.685777 9.43394 0.685777V2.81911C13.42 2.81911 16.6327 6.01375 16.6327 9.93356H18.766ZM9.43394 19.1813C14.5801 19.1813 18.766 15.0521 18.766 9.93356H16.6327C16.6327 13.8536 13.4223 17.048 9.43394 17.048V19.1813ZM0.0993508 9.93356C0.0993508 15.0498 4.28803 19.1813 9.43394 19.1813V17.048C5.44538 17.048 2.23268 13.8508 2.23268 9.93356H0.0993508ZM9.43394 14.4353C6.90842 14.4353 4.87312 12.4034 4.87312 9.93356H2.73979C2.73979 13.6021 5.75087 16.5686 9.43394 16.5686V14.4353ZM13.9922 9.93356C13.9922 12.4037 11.9566 14.4353 9.43394 14.4353V16.5686C13.1148 16.5686 16.1255 13.6018 16.1255 9.93356H13.9922ZM9.43394 5.43434C11.9595 5.43434 13.9922 7.46375 13.9922 9.93356H16.1255C16.1255 6.265 13.117 3.30101 9.43394 3.30101V5.43434ZM4.87312 9.93356C4.87312 7.46438 6.90779 5.43434 9.43394 5.43434V3.30101C5.7515 3.30101 2.73979 6.26438 2.73979 9.93356H4.87312ZM12.9722 9.93351C12.9722 11.8486 11.393 13.4265 9.4334 13.4265V15.5598C12.5507 15.5598 15.1055 13.0472 15.1055 9.93351H12.9722ZM9.4334 6.44306C11.3956 6.44306 12.9722 8.02098 12.9722 9.93351H15.1055C15.1055 6.82237 12.5533 4.30973 9.4334 4.30973V6.44306ZM5.89205 9.93351C5.89205 8.0196 7.47005 6.44306 9.4334 6.44306V4.30973C6.31468 4.30973 3.75872 6.8187 3.75872 9.93351H5.89205ZM9.4334 13.4265C7.47299 13.4265 5.89205 11.8478 5.89205 9.93351H3.75872C3.75872 13.0479 6.31684 15.5598 9.4334 15.5598V13.4265Z" fill="#61616E" mask="url(#path-1-outside-1_3398_16430)"/>
<defs>
<filter id="filter0_i_3398_16430" x="0.0996094" y="0.685547" width="18.666" height="19.5623" filterUnits="userSpaceOnUse" color-interpolation-filters="sRGB">
<feFlood flood-opacity="0" result="BackgroundImageFix"/>
<feBlend mode="normal" in="SourceGraphic" in2="BackgroundImageFix" result="shape"/>
<feColorMatrix in="SourceAlpha" type="matrix" values="0 0 0 0 0 0 0 0 0 0 0 0 0 0 0 0 0 0 127 0" result="hardAlpha"/>
<feOffset dy="1.06666"/>
<feGaussianBlur stdDeviation="1.6"/>
<feComposite in2="hardAlpha" operator="arithmetic" k2="-1" k3="1"/>
<feColorMatrix type="matrix" values="0 0 0 0 1 0 0 0 0 0.975477 0 0 0 0 0.705729 0 0 0 1 0"/>
<feBlend mode="normal" in2="shape" result="effect1_innerShadow_3398_16430"/>
</filter>
</defs>
</svg>
