<svg width="20" height="20" viewBox="0 0 20 20" fill="none" xmlns="http://www.w3.org/2000/svg">
<path fill-rule="evenodd" clip-rule="evenodd" d="M11.8833 0.874512H7.08739C3.23984 0.874512 0.109375 4.00498 0.109375 7.85252V10.7902C0.109375 14.6378 3.23984 17.7682 7.08739 17.7682H15.8002L17.273 18.7706C17.6045 19.0019 17.9746 19.1253 18.337 19.1253C18.5992 19.1253 18.8536 19.0636 19.0926 18.9402C19.6324 18.6549 19.9716 18.0689 19.9716 17.4213V8.97825C19.9793 4.50616 16.3477 0.874512 11.8833 0.874512ZM18.4295 17.4213C18.4295 17.5061 18.3987 17.56 18.3756 17.5755C18.337 17.5909 18.2522 17.5755 18.1442 17.4984L16.2783 16.2261H7.08739C4.088 16.2261 1.65148 13.7896 1.65148 10.7902V7.85252C1.65148 4.85313 4.088 2.41661 7.08739 2.41661H11.8833C15.4995 2.41661 18.4372 5.36203 18.4372 8.97825V17.4213H18.4295ZM14.4044 6.57317H5.68382V8.11527H14.4044V6.57317ZM5.68382 10.4905H14.4044V12.0326H5.68382V10.4905Z" fill="#000"/>
</svg>
