<svg width="18" height="18" viewBox="0 0 18 18" fill="none" xmlns="http://www.w3.org/2000/svg">
<path d="M8.9571 17.9329C4.16598 17.9329 0.267578 14.1053 0.267578 9.39954C0.267578 4.69375 4.16598 0.866211 8.9571 0.866211C11.1276 0.866211 13.2052 1.65607 14.8091 3.09085L15.1013 3.35317L12.2358 6.16766L11.9702 5.94447C11.1291 5.23723 10.0593 4.84737 8.9571 4.84737C6.40144 4.84737 4.32092 6.8894 4.32092 9.39954C4.32092 11.9097 6.40144 13.9517 8.9571 13.9517C10.8001 13.9517 12.2564 13.0271 12.9426 11.4517H8.57935V7.60969L17.0977 7.62128L17.1612 7.91549C17.6053 9.9865 17.2497 13.0329 15.4495 15.2126C13.9592 17.0169 11.7754 17.9329 8.9571 17.9329Z" fill="#616470"/>
</svg>
