<svg width="24" height="24" viewBox="0 0 24 24" fill="none" xmlns="http://www.w3.org/2000/svg">
<path fill-rule="evenodd" clip-rule="evenodd" d="M5.86667 0C2.6266 0 0 2.62659 0 5.86667V17.6C0 20.8401 2.62659 23.4667 5.86667 23.4667H17.6C20.8401 23.4667 23.4667 20.8401 23.4667 17.6V5.86667C23.4667 2.6266 20.8401 0 17.6 0H5.86667ZM9.90314 7.28255C9.90314 6.69345 10.3807 6.21588 10.9698 6.21588H12.6847C13.2739 6.21588 13.7514 6.69344 13.7514 7.28255V10.0643H16.5334C17.1225 10.0643 17.6 10.5418 17.6 11.1309V12.8459C17.6 13.435 17.1225 13.9125 16.5334 13.9125H13.7514V16.694C13.7514 17.2832 13.2739 17.7607 12.6847 17.7607H10.9698C10.3807 17.7607 9.90314 17.2832 9.90314 16.6941V13.9125H7.12187C6.53277 13.9125 6.05521 13.435 6.05521 12.8459V11.1309C6.05521 10.5418 6.53277 10.0643 7.12187 10.0643L9.90314 10.0643V7.28255Z" fill="#40939C"/>
</svg>
