<svg width="21" height="18" viewBox="0 0 21 18" fill="none" xmlns="http://www.w3.org/2000/svg">
<path d="M19.2523 1.80258C16.922 -0.600859 13.1257 -0.600859 10.7877 1.80258L10.5022 2.09607L10.3711 1.96122C8.01766 -0.458081 4.21362 -0.584995 1.88336 1.66773C0.695079 2.81789 0.0237764 4.38052 0.000628104 6.0542C-0.0225202 7.73582 0.594771 9.31431 1.75219 10.4962L8.04081 16.953C8.71982 17.651 9.60718 18 10.5022 18C11.3973 18 12.2847 17.651 12.9637 16.953L19.2523 10.4962C21.5826 8.10069 21.5826 4.19808 19.2523 1.80258ZM9.12878 15.8345L2.84015 9.37777C1.98366 8.4973 1.52842 7.32334 1.54385 6.078C1.55928 4.83265 2.06083 3.68249 2.94046 2.82582C3.75837 2.03261 4.8232 1.64394 5.91117 1.64394C7.11488 1.64394 8.34945 2.1278 9.27539 3.07965L10.5022 4.34086L11.8834 2.92101C13.6118 1.14421 16.4282 1.14421 18.1643 2.92101C19.8927 4.69781 19.8927 7.60097 18.1643 9.37777L11.8757 15.8345C11.1195 16.6119 9.88496 16.6119 9.12878 15.8345Z" fill="#616470"/>
</svg>
