<svg width="23" height="19" viewBox="0 0 23 19" fill="none" xmlns="http://www.w3.org/2000/svg">
<path fill-rule="evenodd" clip-rule="evenodd" d="M19.9459 6.30095C20.8017 6.30095 21.5805 6.68648 22.0971 7.37271C22.606 8.05124 22.7679 8.91481 22.5289 9.73984L20.4239 17.0263C20.0924 18.1751 19.0283 18.977 17.8409 18.977H10.5391C9.05864 18.977 7.8558 17.7742 7.84038 16.2938L7.79412 7.40355C7.79412 6.98719 7.88664 6.57853 8.0717 6.20843L10.0225 2.20667C10.4774 1.29683 11.4258 0.703125 12.4436 0.703125C13.2069 0.703125 13.9317 1.02697 14.4483 1.58983C14.9572 2.16041 15.2039 2.91604 15.1191 3.67938L14.9726 5.02872C14.9418 5.35256 15.042 5.66869 15.2656 5.91543C15.4892 6.16216 15.7899 6.30095 16.1215 6.30095H19.9459ZM10.5391 17.4349H17.8409C18.3498 17.4349 18.8047 17.088 18.9435 16.6022L21.0485 9.30805C21.1487 8.96108 21.0793 8.59097 20.8634 8.29797C20.6475 8.00497 20.3083 7.84305 19.9459 7.84305H16.1215C15.3581 7.84305 14.6256 7.5115 14.1167 6.94863C13.6078 6.37806 13.3611 5.62243 13.4459 4.8668L13.5847 3.51746C13.6233 3.18591 13.523 2.86978 13.2994 2.62304C13.0758 2.3763 12.7751 2.24523 12.4436 2.24523C12.0041 2.24523 11.6031 2.49196 11.4103 2.8852L9.45959 6.88695C9.38248 7.04116 9.33622 7.2185 9.33622 7.39584L9.38248 16.2861C9.39019 16.9183 9.9068 17.4349 10.5391 17.4349ZM0 10.1024C0 8.08997 1.63463 6.45535 3.65478 6.45535H6.72356V18.7228H3.65478C1.63463 18.7228 0 17.0804 0 15.068V10.1024ZM3.65478 17.1807H5.18146V7.99745H3.65478C2.49049 7.99745 1.5421 8.94584 1.5421 10.1024V15.068C1.5421 16.2323 2.49049 17.1807 3.65478 17.1807Z" fill="#000"/>
</svg>
