<svg width="23" height="19" viewBox="0 0 23 19" fill="none" xmlns="http://www.w3.org/2000/svg">
<path fill-rule="evenodd" clip-rule="evenodd" d="M19.9178 5.82341C20.7736 5.82341 21.5524 6.20894 22.069 6.89517C22.5779 7.5737 22.7398 8.43727 22.5008 9.2623L20.3958 16.5487C20.0643 17.6976 19.0002 18.4995 17.8128 18.4995H10.5109C9.03053 18.4995 7.82769 17.2966 7.81227 15.8162L7.766 6.92602C7.766 6.50965 7.85853 6.10099 8.04358 5.73089L9.99434 1.72913C10.4493 0.819295 11.3977 0.225586 12.4154 0.225586C13.1788 0.225586 13.9036 0.549427 14.4202 1.11229C14.9291 1.68287 15.1758 2.4385 15.091 3.20184L14.9445 4.55118C14.9136 4.87502 15.0139 5.19115 15.2375 5.43789C15.4611 5.68462 15.7618 5.82341 16.0933 5.82341H19.9178ZM3.65478 6.00009C1.63463 6.00009 0 7.63472 0 9.64716V14.6127C0 16.6252 1.63463 18.2675 3.65478 18.2675H6.72356V6.00009H3.65478Z" fill="#E5BF85"/>
</svg>
