<svg width="32" height="39" viewBox="0 0 32 39" fill="none" xmlns="http://www.w3.org/2000/svg">
<path d="M27.2644 13.5655V9.83304C27.2644 4.41116 22.7923 0 17.2955 0H14.7045C9.20769 0 4.73559 4.41116 4.73559 9.83304V13.5655C1.97621 14.5185 0 17.1031 0 20.1426V32.0187C0 35.8739 3.16926 39 7.07777 39H24.9222C28.8307 39 32 35.8739 32 32.0187V20.1426C32 17.0959 30.0238 14.5185 27.2644 13.5655ZM14.7045 5.77564H17.2955C19.5645 5.77564 21.409 7.59498 21.409 9.83304V13.1685H10.591V9.83304C10.591 7.59498 12.4355 5.77564 14.7045 5.77564ZM18.8545 27.3043V30.6975C18.8545 32.0331 17.7566 33.1161 16.4026 33.1161H15.6853C14.3312 33.1161 13.2333 32.0331 13.2333 30.6975V27.3043C12.1061 26.4669 11.3815 25.1385 11.3815 23.6368C11.3815 21.0955 13.4675 19.038 16.0439 19.038C18.6203 19.038 20.7063 21.0955 20.7063 23.6368C20.7063 25.1385 19.9744 26.4596 18.8545 27.3043Z" fill="white"/>
</svg>
