<svg width="31" height="56" viewBox="0 0 31 56" fill="none" xmlns="http://www.w3.org/2000/svg">
<path d="M27.8974 19.5358C26.7697 19.6408 25.9477 20.6479 25.9477 21.7742V36.799C25.9477 37.9922 24.9777 38.9611 23.783 38.9611C22.5884 38.9611 21.6231 37.9922 21.6231 36.799V15.3071C21.6231 14.1807 20.7964 13.1737 19.6734 13.0687C18.3832 12.9446 17.2985 13.9516 17.2985 15.2164V30.2841C17.2985 30.2841 17.4514 32.4462 15.1386 32.4462C12.8257 32.4462 12.9739 30.2794 12.9739 30.2794V2.25353C12.9739 1.12238 12.1472 0.115318 11.0242 0.0103168C9.73398 -0.113776 8.64924 0.898056 8.64924 2.15807V38.9801C8.64924 40.1733 7.68397 41.1374 6.48932 41.1374C5.29468 41.1374 4.32462 40.1733 4.32462 38.9801V30.0168C4.32462 28.8236 3.35935 27.8595 2.1647 27.8595C0.320166 27.8595 0 29.4202 0 30.0168V50.9694C0 53.5181 2.06435 55.5847 4.62089 55.5847H25.6419C28.1937 55.5847 30.2676 53.5181 30.2676 50.9694V21.6836C30.2676 20.4188 29.1781 19.4117 27.8926 19.5358H27.8974ZM17.2985 39.109C17.2985 40.3022 16.3284 41.2663 15.1386 41.2663C13.9487 41.2663 12.9739 40.3022 12.9739 39.109V38.646C12.9739 37.4529 13.9439 36.484 15.1386 36.484C16.3332 36.484 17.2985 37.4529 17.2985 38.646V39.109Z" fill="#40949C"/>
<path d="M4.32462 17.3018C4.32462 18.495 3.35457 19.4591 2.1647 19.4591C0.974832 19.4591 0 18.495 0 17.3018V16.8388C0 15.6456 0.970053 14.6768 2.1647 14.6768C3.35935 14.6768 4.32462 15.6456 4.32462 16.8388V17.3018Z" fill="#40949C"/>
</svg>
