<svg width="14" height="14" viewBox="0 0 14 14" fill="#000" xmlns="http://www.w3.org/2000/svg">
<path fill-rule="evenodd" clip-rule="evenodd" d="M7.68333 14C8.27244 14 8.75 13.5224 8.75 12.9333V8.75H12.9333C13.5224 8.75 14 8.27244 14 7.68333V6.31667C14 5.72756 13.5224 5.25 12.9333 5.25H8.75V1.06667C8.75 0.477563 8.27244 0 7.68333 0H6.31667C5.72756 0 5.25 0.477563 5.25 1.06667L5.25 5.25H1.06667C0.477563 5.25 0 5.72756 0 6.31667V7.68333C0 8.27244 0.477563 8.75 1.06667 8.75H5.25L5.25 12.9333C5.25 13.5224 5.72756 14 6.31667 14H7.68333Z" fill="#000"/>
</svg>
