<svg width="100%" viewBox="0 0 31 30" fill="none" xmlns="http://www.w3.org/2000/svg">
<g opacity="0.4">
<path d="M23.7222 13.0574C23.7222 18.8784 18.9812 23.6148 13.1111 23.6148C7.24107 23.6148 2.5 18.8784 2.5 13.0574C2.5 7.23637 7.24107 2.5 13.1111 2.5C18.9812 2.5 23.7222 7.23637 23.7222 13.0574Z" stroke="#2F3446" stroke-width="5"/>
<path d="M25.237 20.0144L23.1113 17.8974L18.86 22.1313L20.9857 24.2483L25.237 20.0144ZM25.8745 29.1172C27.0485 30.2863 28.9519 30.2863 30.1259 29.1172C31.2999 27.948 31.2999 26.0524 30.1259 24.8832L25.8745 29.1172ZM20.9857 24.2483L25.8745 29.1172L30.1259 24.8832L25.237 20.0144L20.9857 24.2483Z" fill="#2F3446"/>
</g>
</svg>
