<svg width="100%" viewBox="0 0 50 45" fill="none" xmlns="http://www.w3.org/2000/svg">
<path fill-rule="evenodd" clip-rule="evenodd" d="M16.9241 0C21.5183 0 25.4058 3.1021 26.5838 7.34294H46.8848C48.2592 7.34294 49.3979 8.48168 49.3979 9.85603C49.3979 11.2304 48.2592 12.3691 46.8848 12.3691H26.6623C25.6021 16.767 21.6361 20.0262 16.9241 20.0262C12.212 20.0262 8.24607 16.767 7.18586 12.3691H2.51309C1.13874 12.3691 0 11.2304 0 9.85603C0 8.48168 1.13874 7.34294 2.51309 7.34294H7.2644C8.44241 3.1021 12.3298 0 16.9241 0ZM17.5916 15.3141C19.9869 15 21.8717 13.0759 22.1859 10.7199C22.6178 7.22514 19.712 4.31938 16.2173 4.75131C13.822 5.06545 11.9372 6.98954 11.623 9.34556C11.1911 12.8403 14.1361 15.7461 17.5916 15.3141ZM32.4738 24.9739C37.1466 24.9739 41.0733 28.1545 42.1728 32.4739H46.8848C48.2592 32.4739 49.3979 33.6126 49.3979 34.9869C49.3979 36.3613 48.2592 37.5 46.8848 37.5H42.1728C41.0733 41.8194 37.1466 45 32.4738 45C27.801 45 23.8744 41.8194 22.7749 37.5H2.51309C1.13874 37.5 0 36.3613 0 34.9869C0 33.6126 1.13874 32.4739 2.51309 32.4739H22.7749C23.8744 28.1545 27.801 24.9739 32.4738 24.9739ZM33.1414 40.2487C35.5367 39.9346 37.4215 38.0105 37.7356 35.6545C38.1675 32.199 35.2618 29.254 31.767 29.6859C29.3717 30 27.4869 31.9241 27.1728 34.2801C26.7408 37.7749 29.6859 40.6807 33.1414 40.2487Z" fill="#000"/>
</svg>
