<svg width="18" height="18" viewBox="0 0 18 18" fill="none" xmlns="http://www.w3.org/2000/svg">
<path d="M17.0895 8.87259C16.8954 9.06663 16.6357 9.17617 16.3603 9.17617C16.0755 9.17304 15.8188 9.06037 15.631 8.87259C15.4433 8.68481 15.3306 8.42818 15.3275 8.14338L15.3275 4.09359L10.4076 9.01342C10.007 9.41402 9.3498 9.41402 8.94608 9.01029C8.54235 8.60657 8.54548 7.95247 8.94608 7.55187L13.869 2.6289L9.81299 2.6289C9.24652 2.63203 8.78333 2.16884 8.78333 1.59924C8.7802 1.3207 8.88974 1.06094 9.08378 0.866901C9.27782 0.672862 9.54071 0.566453 9.81612 0.566453L16.3571 0.566453C16.6325 0.566453 16.8892 0.672862 17.0832 0.866902L17.0895 0.87316C17.2835 1.0672 17.393 1.32696 17.393 1.60237L17.393 8.14338C17.393 8.41879 17.2835 8.67855 17.0895 8.87259Z" fill="#616470"/>
<path d="M5.78516 2V2C4.24696 2 3 3.24696 3 4.78516V10.0405C3 12.7796 5.22043 15 7.95947 15H11.6856C13.038 15 14.3318 14.4477 15.2673 13.4709L16 12.7059" stroke="#616470" stroke-width="2.07833" stroke-linecap="round"/>
</svg>
