<svg width="76" height="76" viewBox="0 0 76 76" fill="none" xmlns="http://www.w3.org/2000/svg">
<path style="mix-blend-mode:overlay" d="M52.4797 36.6305C53.1544 44.104 47.5452 50.8077 39.9286 51.5125C32.312 52.2172 25.7514 46.5779 25.0466 38.9614C24.5149 31.4578 29.9811 24.7841 37.6277 24.2224C45.2443 23.5176 51.805 29.1569 52.5097 36.7735L52.4797 36.6305Z" fill="url(#paint0_radial_3647_22858)"/>
<path style="mix-blend-mode:color-dodge" d="M38.391 40.246C21.1529 43.8687 6.85073 45.7597 6.58149 44.4786C6.31226 43.1975 20.022 39.2015 37.4038 35.5486C54.7856 31.8957 68.9441 30.0349 69.2133 31.316C69.4826 32.5971 55.6291 36.6232 38.391 40.246Z" fill="url(#paint1_radial_3647_22858)"/>
<path style="mix-blend-mode:color-dodge" d="M36.3318 38.2265C32.6956 20.9241 30.6402 6.72358 31.7078 6.49922C32.7754 6.27486 36.6101 20.1014 40.2463 37.4038C43.8826 54.7062 45.938 68.9067 44.8704 69.1311C43.8028 69.3554 39.9681 55.5289 36.3318 38.2265Z" fill="url(#paint2_radial_3647_22858)"/>
<path style="mix-blend-mode:color-dodge" d="M37.2392 39.0942C28.2402 33.2207 21.1976 28.1307 21.5064 27.4685C21.8453 26.9493 29.3396 31.3471 38.3387 37.2206C47.3377 43.094 54.3802 48.1841 54.0714 48.8463C53.7326 49.3655 46.0952 44.9977 37.2392 39.0942Z" fill="url(#paint3_radial_3647_22858)"/>
<path style="mix-blend-mode:color-dodge" d="M35.8363 40.1989C41.7098 31.1998 46.7999 24.1573 47.319 24.4961C47.8382 24.835 43.4704 32.4723 37.597 41.4714C31.7235 50.4704 26.6335 57.5129 26.1143 57.1741C25.5951 56.8352 29.9629 49.1979 35.8363 40.1989Z" fill="url(#paint4_radial_3647_22858)"/>
<defs>
<radialGradient id="paint0_radial_3647_22858" cx="0" cy="0" r="1" gradientUnits="userSpaceOnUse" gradientTransform="translate(38.8427 37.62) rotate(-4.78844) scale(13.7361)">
<stop offset="0.025" stop-color="white"/>
<stop offset="0.27" stop-color="#FFEED5"/>
<stop offset="0.755" stop-color="#E4E4E4" stop-opacity="0"/>
</radialGradient>
<radialGradient id="paint1_radial_3647_22858" cx="0" cy="0" r="1" gradientUnits="userSpaceOnUse" gradientTransform="translate(37.506 37.9795) rotate(-11.8684) scale(22.8 1.45357)">
<stop stop-color="white"/>
<stop offset="0.14" stop-color="#FFFFFF"/>
<stop offset="0.32" stop-color="#FFFFFF"/>
<stop offset="0.48" stop-color="#FFFFFF"/>
<stop offset="0.64" stop-color="#FFFFFF"/>
<stop offset="0.78" stop-color="#FFFFFF"/>
<stop offset="0.91" stop-color="#FFFFFF"/>
<stop offset="1"/>
</radialGradient>
<radialGradient id="paint2_radial_3647_22858" cx="0" cy="0" r="1" gradientUnits="userSpaceOnUse" gradientTransform="translate(37.8154 37.506) rotate(78.1316) scale(25.2 1.13107)">
<stop stop-color="white"/>
<stop offset="0.14" stop-color="#FFFFFF"/>
<stop offset="0.32" stop-color="#FFFFFF"/>
<stop offset="0.48" stop-color="#FFFFFF"/>
<stop offset="0.64" stop-color="#FFFFFF"/>
<stop offset="0.78" stop-color="#FFFFFF"/>
<stop offset="0.91" stop-color="#FFFFFF"/>
<stop offset="1"/>
</radialGradient>
<radialGradient id="paint3_radial_3647_22858" cx="0" cy="0" r="1" gradientUnits="userSpaceOnUse" gradientTransform="translate(37.7559 38.2461) rotate(32.9416) scale(13.7361 0.961525)">
<stop stop-color="white"/>
<stop offset="0.14" stop-color="#FFFFFF"/>
<stop offset="0.32" stop-color="#FFFFFF"/>
<stop offset="0.48" stop-color="#FFFFFF"/>
<stop offset="0.64" stop-color="#FFFFFF"/>
<stop offset="0.78" stop-color="#FFFFFF"/>
<stop offset="0.91" stop-color="#FFFFFF"/>
<stop offset="1"/>
</radialGradient>
<radialGradient id="paint4_radial_3647_22858" cx="0" cy="0" r="1" gradientUnits="userSpaceOnUse" gradientTransform="translate(39.6456 36.0322) rotate(124.212) scale(14.9933 0.671129)">
<stop stop-color="white"/>
<stop offset="0.14" stop-color="#FFFFFF"/>
<stop offset="0.32" stop-color="#FFFFFF"/>
<stop offset="0.48" stop-color="#FFFFFF"/>
<stop offset="0.64" stop-color="#FFFFFF"/>
<stop offset="0.78" stop-color="#FFFFFF"/>
<stop offset="0.91" stop-color="#FFFFFF"/>
<stop offset="1"/>
</radialGradient>
</defs>
</svg>
