<svg width="17" height="20" viewBox="0 0 17 20" fill="none" xmlns="http://www.w3.org/2000/svg">
<path d="M6.75994 20C5.0324 20 3.29651 19.3286 1.97791 17.9857C0.70103 16.6853 0 14.9599 0 13.1155C0 11.2712 0.70103 9.54582 1.97791 8.24543L7.36917 2.75486L8.80462 1.41197C10.649 -0.474884 13.7035 -0.474884 15.5813 1.43747C16.4993 2.37239 17 3.59629 17 4.90519C17 6.21409 16.4993 7.44649 15.5896 8.37292L9.03829 15.0534C7.87825 16.2263 6.00049 16.2263 4.8488 15.0534C4.28964 14.4839 3.98085 13.7275 3.98085 12.9201C3.98085 12.1126 4.28964 11.3562 4.8488 10.7867L9.85616 5.68713L11.0329 6.88553L6.02553 11.9851C5.78351 12.2316 5.64998 12.5631 5.64998 12.9201C5.64998 13.277 5.78351 13.6 6.02553 13.8465C6.52627 14.3564 7.35248 14.3564 7.85322 13.8465L14.4045 7.16601C14.9971 6.56256 15.3225 5.75512 15.3225 4.90519C15.3225 4.05526 14.9971 3.24782 14.4045 2.64437C13.1694 1.38647 11.1831 1.38647 9.95631 2.64437L8.52087 3.98726L3.15464 9.45233C2.19489 10.4298 1.66078 11.7302 1.66078 13.1155C1.66078 14.5009 2.18655 15.8013 3.15464 16.7788C5.14089 18.8016 8.37064 18.8016 10.3569 16.7788L15.7482 11.2882L16.9249 12.4866L11.5336 17.9772C10.215 19.3201 8.48748 19.9915 6.7516 19.9915L6.75994 20Z" fill="#000"/>
</svg>
