<svg width="19" height="18" viewBox="0 0 19 18" fill="none" xmlns="http://www.w3.org/2000/svg">
<path d="M15.1162 4.17526H3.68816V4.16681C2.63117 4.1209 2.62756 2.66533 3.68816 2.61822H13.4276C13.8724 2.61822 14.2351 2.9806 14.2351 3.42754H16.5142C16.5142 1.72192 15.1294 0.333985 13.4276 0.333985H3.68816C1.9924 0.332777 0.61482 1.71346 0.601562 3.40338V14.8404C0.601562 16.5497 1.98396 17.934 3.68816 17.934H15.115C16.8192 17.934 18.2016 16.5497 18.2016 14.8404V7.26761C18.2016 5.55957 16.8204 4.17526 15.1162 4.17526ZM15.9924 9.22036H13.1444C12.1344 9.22036 11.3161 10.0406 11.3161 11.0528C11.3161 12.0651 12.1344 12.8853 13.1444 12.8853H15.9924V14.768C15.9948 15.2596 15.5886 15.6461 15.115 15.6498H3.68816C3.24223 15.6498 2.88066 15.2874 2.88066 14.8392V6.34111C3.13737 6.41117 3.40855 6.44983 3.68816 6.44983V6.45708H15.115C15.1632 6.45708 15.2572 6.47036 15.2584 6.47036C15.6742 6.53922 15.9924 6.90039 15.9924 7.33646V9.21914V9.22036Z" fill="white"/>
</svg>
